<?xml version="1.0" standalone="no"?>
<!DOCTYPE svg PUBLIC "-//W3C//DTD SVG 20010904//EN"
 "http://www.w3.org/TR/2001/REC-SVG-20010904/DTD/svg10.dtd">
<svg version="1.0" xmlns="http://www.w3.org/2000/svg"
 width="510.000000pt" height="510.000000pt" viewBox="0 0 510.000000 510.000000"
 preserveAspectRatio="xMidYMid meet">
<metadata>
Created by potrace 1.14, written by Peter Selinger 2001-2017
</metadata>
<g transform="translate(0.000000,510.000000) scale(0.100000,-0.100000)"
fill="#000000" stroke="none">
<path d="M3535 4507 c-82 -26 -141 -112 -131 -190 3 -23 5 -47 5 -53 1 -6 17
-32 36 -57 l35 -45 -21 -50 c-18 -42 -25 -50 -43 -46 -86 18 -201 -7 -269 -59
l-32 -24 -130 23 c-107 18 -160 21 -300 19 -93 -1 -179 -5 -190 -8 -11 -3 -41
-8 -67 -11 -61 -8 -238 -59 -319 -92 -364 -148 -664 -424 -834 -769 -87 -177
-154 -380 -136 -413 6 -11 127 -56 370 -136 204 -68 360 -125 358 -130 -2 -7
-95 -13 -265 -16 -287 -5 -285 -5 -336 -74 -20 -26 -21 -41 -21 -284 0 -231 2
-262 19 -307 57 -145 164 -242 309 -281 38 -10 123 -14 307 -14 186 0 259 -3
268 -12 7 -7 12 -36 12 -65 l0 -53 -455 0 -456 0 -24 -25 c-22 -21 -25 -33
-25 -100 0 -74 0 -75 -25 -75 -14 0 -37 -11 -50 -25 l-25 -24 0 -241 0 -241
25 -24 24 -25 1561 0 1561 0 25 25 24 25 -1 967 c-1 986 -2 1014 -39 1178 -78
348 -294 694 -563 902 -23 18 -29 31 -33 77 -8 100 -63 202 -139 253 -27 18
-33 27 -26 41 5 9 15 33 24 53 13 30 20 36 49 37 59 3 89 15 126 46 95 82 76
243 -35 309 -36 21 -106 28 -148 14z"/>
<path d="M790 2395 c-24 -28 -5 -50 95 -107 102 -59 130 -66 148 -37 18 28 1
46 -101 103 -106 60 -123 64 -142 41z"/>
<path d="M412 1998 c-16 -16 -15 -43 2 -57 9 -8 87 -11 261 -9 223 3 249 5
259 21 8 12 8 22 0 35 -10 15 -36 17 -260 20 -186 2 -253 -1 -262 -10z"/>
<path d="M891 1677 c-100 -56 -118 -74 -108 -101 15 -40 34 -35 172 42 78 44
95 63 79 90 -19 29 -46 23 -143 -31z"/>
</g>
</svg>
